<svg version="1.1" id="Layer_1" xmlns="http://www.w3.org/2000/svg" xmlns:xlink="http://www.w3.org/1999/xlink" x="0px" y="0px" width="100%" viewBox="0 0 1494 1302" enable-background="new 0 0 1494 1302" xml:space="preserve">
  <path fill="None" stroke="none" d="
M974.000000,1303.000000 
	C649.333374,1303.000000 325.166779,1303.000000 1.000131,1303.000000 
	C1.000087,869.000122 1.000087,435.000275 1.000044,1.000305 
	C498.999756,1.000203 996.999512,1.000203 1494.999512,1.000102 
	C1494.999634,434.999725 1494.999634,868.999451 1494.999756,1302.999512 
	C1321.500000,1303.000000 1148.000000,1303.000000 974.000000,1303.000000 
M335.500000,1228.157959 
	C435.859467,1228.157959 536.218933,1228.157959 636.556641,1228.157959 
	C636.556641,1226.933472 636.662964,1226.562622 636.539856,1226.298584 
	C635.554565,1224.186279 634.534729,1222.089966 633.508972,1219.996704 
	C624.909912,1202.448975 619.660278,1183.739258 619.251526,1164.402954 
	C618.413574,1124.758667 618.934509,1085.083862 619.050903,1045.422119 
	C619.076782,1036.615234 619.280334,1027.761353 620.202332,1019.013428 
	C623.129761,991.237366 630.021240,964.515015 641.357727,938.866394 
	C659.225159,898.441528 685.380493,864.618164 720.142334,837.382507 
	C747.203857,816.180115 777.212036,800.740601 810.296204,791.392334 
	C819.211487,788.873291 828.279419,786.894409 837.383118,784.641357 
	C837.158386,784.084778 837.036194,783.602539 836.786011,783.199768 
	C836.259338,782.352112 835.710632,781.510559 835.092896,780.728149 
	C816.196777,756.790405 802.982727,729.834900 793.360962,701.077148 
	C791.725769,696.189819 789.605713,694.872314 784.639343,694.887329 
	C628.697693,695.358032 472.755280,695.594421 316.813965,696.146973 
	C305.257965,696.187866 293.578888,697.591187 282.182739,699.625610 
	C252.295181,704.961182 224.250305,715.521790 197.773376,730.500610 
	C171.514816,745.355835 148.738113,764.464600 128.961624,786.958130 
	C108.030212,810.765137 91.983490,837.749084 80.727158,867.512878 
	C70.291588,895.106384 63.819355,923.740845 63.295528,953.051208 
	C62.301125,1008.692810 62.747253,1064.368652 63.327553,1120.022705 
	C63.447029,1131.480835 65.702606,1143.210205 68.856400,1154.278198 
	C74.303009,1173.392578 85.190483,1189.278076 100.493408,1202.349976 
	C118.921608,1218.091309 140.052094,1227.510620 164.022385,1227.828491 
	C220.839722,1228.582031 277.673096,1228.125488 335.500000,1228.157959 
M1387.835571,989.736633 
	C1387.602417,989.112976 1387.347900,988.496399 1387.138916,987.864685 
	C1374.031494,948.228333 1350.072876,916.585266 1315.814941,893.023987 
	C1284.049561,871.176819 1248.327881,861.192383 1209.948120,861.132629 
	C1104.287598,860.968018 998.626465,860.979858 892.966125,861.198914 
	C880.053833,861.225647 867.051270,862.255005 854.252441,864.004150 
	C817.705872,868.998657 786.169373,884.892334 758.981628,909.613464 
	C734.522278,931.853760 717.125122,958.779724 707.598022,990.370422 
	C703.597412,1003.636047 699.741821,1017.512512 699.385681,1031.203979 
	C698.315613,1072.339966 698.973389,1113.521729 699.045166,1154.685425 
	C699.052063,1158.650513 699.352539,1162.672607 700.061218,1166.569214 
	C704.121704,1188.896729 715.561401,1206.296509 735.122803,1218.091431 
	C747.279297,1225.421509 760.518311,1228.227417 774.682678,1228.219971 
	C956.672546,1228.124756 1138.662476,1228.157349 1320.652344,1228.153809 
	C1322.651978,1228.153809 1324.654297,1228.162720 1326.650879,1228.069092 
	C1349.136719,1227.014160 1367.146118,1217.238403 1381.114990,1199.825073 
	C1392.322144,1185.854858 1396.870117,1169.496460 1396.849976,1151.923096 
	C1396.806885,1114.445068 1396.246826,1076.968018 1396.135742,1039.489868 
	C1396.086060,1022.680237 1392.868042,1006.481506 1387.835571,989.736633 
M406.143738,560.387512 
	C417.347473,567.564148 428.149078,575.485962 439.825592,581.786377 
	C486.628418,607.040527 536.600403,618.088867 589.822205,614.146301 
	C613.000183,612.429321 635.607056,608.076172 657.544006,600.576965 
	C710.916382,582.331543 754.878479,550.628418 788.459900,505.452087 
	C820.787598,461.962433 838.769836,412.716400 841.918213,358.459290 
	C843.525269,330.763550 841.274475,303.292145 834.229675,276.332428 
	C816.521423,208.565140 778.866455,154.687576 720.765198,115.655426 
	C675.389893,85.172424 624.826599,70.492142 570.208008,70.106880 
	C559.787170,70.033371 549.318970,70.916512 538.938416,71.992775 
	C511.610138,74.826187 485.468414,82.196198 460.319092,93.245201 
	C416.837646,112.348122 380.761169,140.913101 352.262390,178.770081 
	C328.629456,210.163513 312.624451,245.252655 304.016632,283.680084 
	C297.449371,312.997925 296.055359,342.620178 299.162933,372.391541 
	C301.324036,393.095123 306.028076,413.343597 313.100067,432.978607 
	C324.492462,464.609222 340.529480,493.591858 362.506897,519.146667 
	C375.465271,534.214417 389.825806,547.822205 406.143738,560.387512 
M1092.800781,436.744690 
	C1087.782715,435.641907 1082.792969,434.384491 1077.741821,433.462982 
	C1055.388184,429.384827 1033.016113,430.299103 1010.901733,434.700592 
	C978.801208,441.089630 950.270996,454.996674 925.422668,476.595551 
	C897.899780,500.519318 878.771606,529.822998 868.187500,564.548462 
	C859.786255,592.112427 858.156372,620.275024 862.880127,648.804260 
	C868.417603,682.247803 881.765198,712.142639 903.524719,738.078247 
	C922.281372,760.434875 944.769531,778.039124 971.669922,789.890442 
	C990.872253,798.350342 1010.979370,803.881348 1031.651611,805.695312 
	C1058.006714,808.007751 1083.978027,804.413757 1109.159546,795.532104 
	C1150.937134,780.796936 1183.589600,754.689514 1207.004517,717.273804 
	C1233.169067,675.464233 1240.598145,629.840271 1231.593384,581.731079 
	C1224.741333,545.122864 1207.509155,513.412781 1181.337769,486.964905 
	C1156.844727,462.213196 1127.771729,444.969391 1092.800781,436.744690 
z"/>
  <path fill="#c4686f" opacity="1.000000" stroke="black" stroke-width="10px" d="
M335.000000,1228.157959 
	C277.673096,1228.125488 220.839722,1228.582031 164.022385,1227.828491 
	C140.052094,1227.510620 118.921608,1218.091309 100.493408,1202.349976 
	C85.190483,1189.278076 74.303009,1173.392578 68.856400,1154.278198 
	C65.702606,1143.210205 63.447029,1131.480835 63.327553,1120.022705 
	C62.747253,1064.368652 62.301125,1008.692810 63.295528,953.051208 
	C63.819355,923.740845 70.291588,895.106384 80.727158,867.512878 
	C91.983490,837.749084 108.030212,810.765137 128.961624,786.958130 
	C148.738113,764.464600 171.514816,745.355835 197.773376,730.500610 
	C224.250305,715.521790 252.295181,704.961182 282.182739,699.625610 
	C293.578888,697.591187 305.257965,696.187866 316.813965,696.146973 
	C472.755280,695.594421 628.697693,695.358032 784.639343,694.887329 
	C789.605713,694.872314 791.725769,696.189819 793.360962,701.077148 
	C802.982727,729.834900 816.196777,756.790405 835.092896,780.728149 
	C835.710632,781.510559 836.259338,782.352112 836.786011,783.199768 
	C837.036194,783.602539 837.158386,784.084778 837.383118,784.641357 
	C828.279419,786.894409 819.211487,788.873291 810.296204,791.392334 
	C777.212036,800.740601 747.203857,816.180115 720.142334,837.382507 
	C685.380493,864.618164 659.225159,898.441528 641.357727,938.866394 
	C630.021240,964.515015 623.129761,991.237366 620.202332,1019.013428 
	C619.280334,1027.761353 619.076782,1036.615234 619.050903,1045.422119 
	C618.934509,1085.083862 618.413574,1124.758667 619.251526,1164.402954 
	C619.660278,1183.739258 624.909912,1202.448975 633.508972,1219.996704 
	C634.534729,1222.089966 635.554565,1224.186279 636.539856,1226.298584 
	C636.662964,1226.562622 636.556641,1226.933472 636.556641,1228.157959 
	C536.218933,1228.157959 435.859467,1228.157959 335.000000,1228.157959 
z"/>
  <path fill="#F1A1A8" opacity="1.000000" stroke="black" stroke-width="10px" d="
M1387.945435,990.119629 
	C1392.868042,1006.481506 1396.086060,1022.680237 1396.135742,1039.489868 
	C1396.246826,1076.968018 1396.806885,1114.445068 1396.849976,1151.923096 
	C1396.870117,1169.496460 1392.322144,1185.854858 1381.114990,1199.825073 
	C1367.146118,1217.238403 1349.136719,1227.014160 1326.650879,1228.069092 
	C1324.654297,1228.162720 1322.651978,1228.153809 1320.652344,1228.153809 
	C1138.662476,1228.157349 956.672546,1228.124756 774.682678,1228.219971 
	C760.518311,1228.227417 747.279297,1225.421509 735.122803,1218.091431 
	C715.561401,1206.296509 704.121704,1188.896729 700.061218,1166.569214 
	C699.352539,1162.672607 699.052063,1158.650513 699.045166,1154.685425 
	C698.973389,1113.521729 698.315613,1072.339966 699.385681,1031.203979 
	C699.741821,1017.512512 703.597412,1003.636047 707.598022,990.370422 
	C717.125122,958.779724 734.522278,931.853760 758.981628,909.613464 
	C786.169373,884.892334 817.705872,868.998657 854.252441,864.004150 
	C867.051270,862.255005 880.053833,861.225647 892.966125,861.198914 
	C998.626465,860.979858 1104.287598,860.968018 1209.948120,861.132629 
	C1248.327881,861.192383 1284.049561,871.176819 1315.814941,893.023987 
	C1350.072876,916.585266 1374.031494,948.228333 1387.138916,987.864685 
	C1387.347900,988.496399 1387.602417,989.112976 1387.945435,990.119629 
z"/>
  <path fill="#c4686f" opacity="1.000000" stroke="black" stroke-width="10px" d="
M405.865845,560.163452 
	C389.825806,547.822205 375.465271,534.214417 362.506897,519.146667 
	C340.529480,493.591858 324.492462,464.609222 313.100067,432.978607 
	C306.028076,413.343597 301.324036,393.095123 299.162933,372.391541 
	C296.055359,342.620178 297.449371,312.997925 304.016632,283.680084 
	C312.624451,245.252655 328.629456,210.163513 352.262390,178.770081 
	C380.761169,140.913101 416.837646,112.348122 460.319092,93.245201 
	C485.468414,82.196198 511.610138,74.826187 538.938416,71.992775 
	C549.318970,70.916512 559.787170,70.033371 570.208008,70.106880 
	C624.826599,70.492142 675.389893,85.172424 720.765198,115.655426 
	C778.866455,154.687576 816.521423,208.565140 834.229675,276.332428 
	C841.274475,303.292145 843.525269,330.763550 841.918213,358.459290 
	C838.769836,412.716400 820.787598,461.962433 788.459900,505.452087 
	C754.878479,550.628418 710.916382,582.331543 657.544006,600.576965 
	C635.607056,608.076172 613.000183,612.429321 589.822205,614.146301 
	C536.600403,618.088867 486.628418,607.040527 439.825592,581.786377 
	C428.149078,575.485962 417.347473,567.564148 405.865845,560.163452 
z"/>
  <path fill="#F1A1A8" opacity="1.000000" stroke="black" stroke-width="10px" d="
M1093.203613,436.828857 
	C1127.771729,444.969391 1156.844727,462.213196 1181.337769,486.964905 
	C1207.509155,513.412781 1224.741333,545.122864 1231.593384,581.731079 
	C1240.598145,629.840271 1233.169067,675.464233 1207.004517,717.273804 
	C1183.589600,754.689514 1150.937134,780.796936 1109.159546,795.532104 
	C1083.978027,804.413757 1058.006714,808.007751 1031.651611,805.695312 
	C1010.979370,803.881348 990.872253,798.350342 971.669922,789.890442 
	C944.769531,778.039124 922.281372,760.434875 903.524719,738.078247 
	C881.765198,712.142639 868.417603,682.247803 862.880127,648.804260 
	C858.156372,620.275024 859.786255,592.112427 868.187500,564.548462 
	C878.771606,529.822998 897.899780,500.519318 925.422668,476.595551 
	C950.270996,454.996674 978.801208,441.089630 1010.901733,434.700592 
	C1033.016113,430.299103 1055.388184,429.384827 1077.741821,433.462982 
	C1082.792969,434.384491 1087.782715,435.641907 1093.203613,436.828857 
z"/>
</svg>
